<?xml version="1.0" standalone="no"?>
<!DOCTYPE svg PUBLIC "-//W3C//DTD SVG 20010904//EN"
 "http://www.w3.org/TR/2001/REC-SVG-20010904/DTD/svg10.dtd">
<svg version="1.0" xmlns="http://www.w3.org/2000/svg"
 width="512.000000pt" height="512.000000pt" viewBox="0 0 512.000000 512.000000"
 preserveAspectRatio="xMidYMid meet">
<metadata>
Created by potrace 1.14, written by Peter Selinger 2001-2017
</metadata>
<g transform="translate(0.000000,512.000000) scale(0.100000,-0.100000)"
fill="#000000" stroke="none">
<path d="M1137 5114 c-1 -1 -34 -4 -72 -7 -39 -3 -115 -16 -170 -28 -470 -101
-771 -413 -859 -889 -9 -47 -19 -101 -23 -120 -10 -53 -13 -2958 -3 -3010 4
-25 11 -65 15 -90 44 -302 187 -551 414 -724 53 -40 156 -106 166 -106 2 0 28
-11 57 -24 113 -53 237 -84 403 -103 81 -10 2892 -9 2979 0 37 4 87 12 110 17
22 5 54 11 69 14 69 12 239 75 307 113 285 160 470 395 545 692 9 35 18 80 21
100 2 20 8 47 11 61 11 38 13 2975 3 3050 -12 85 -18 119 -25 150 -3 14 -7 37
-10 51 -9 48 -57 184 -87 244 -159 317 -471 536 -845 591 -26 3 -57 9 -68 12
-18 4 -2932 11 -2938 6z"/>
</g>
</svg>
